<svg id="filled_outline" height="512" viewBox="0 0 512 512" width="512" xmlns="http://www.w3.org/2000/svg" data-name="filled outline"><path d="m472 304v152h-96v-328h-56l-24-48h144v184z" fill="#ffc431"/><path d="m304 264v8h-57.28a32.016 32.016 0 0 1 -24.3-11.17l-19.64-22.92009-18.78-21.90991v56h-104v-70.06006a33.94578 33.94578 0 0 1 33.94-33.93994h62.41a32.01551 32.01551 0 0 1 25.26 12.35l28.71 36.91 17.68 22.74h32a24.00619 24.00619 0 0 1 24 24z" fill="#ffceb6"/><path d="m230.32 217.26-27.54 20.6499-18.78-21.9099v56h-104v-70.06006a33.94578 33.94578 0 0 1 33.94-33.93994h62.41a32.01551 32.01551 0 0 1 25.26 12.35z" fill="#548aff"/><path d="m160 144v24l-2.67 8-2.8 8.40991a11.102 11.102 0 0 1 -21.06006 0l-5.46994-16.40991v-24z" fill="#ffceb6"/><path d="m160 136h-32v16a16 16 0 0 0 16 16 16 16 0 0 0 16-16z" fill="#ffceb6"/><path d="m216 24h136v56h-136z" fill="#ffd873"/><path d="m288 112h-64l-8-32h80z" fill="#ffc431"/><path d="m288 152-8 16h-48l-8-16v-40h64z" fill="#ffb401"/><path d="m440 456-24-40h-88l-24 40z" fill="#ffb401"/><path d="m248 456h224v32h-224z" fill="#ffd873"/><path d="m176 456 32 24v8h-64v-24z" fill="#e0edff"/><path d="m40 464 40-8 24 24v8h-64z" fill="#e0edff"/><path d="m144 464 32-8v-184h-96l-40 192 40-8 48-136z" fill="#4976f2"/><path d="m116 252 28-28 16 16h32a24 24 0 0 1 24 24v8h-66.74517a32 32 0 0 1 -22.62741-9.37258z" fill="#ffceb6"/><path d="m376 328h-168l-56-32v-24h224z" fill="#ffb401"/><path d="m376 360h-72l-32-32h104z" fill="#ffa100"/><path d="m376 232h-24l-24 40h48z" fill="#ffa100"/><path d="m144 112a16 16 0 0 1 16 16v8a0 0 0 0 1 0 0h-32a0 0 0 0 1 0 0v-8a16 16 0 0 1 16-16z" fill="#548aff"/><path d="m168.0001 144h16v-16h-16a24 24 0 1 0 -48 0v32h-6.0591a41.9882 41.9882 0 0 0 -41.9409 41.94092v69.23486l-39.832 191.19238a8.00311 8.00311 0 0 0 -.168 1.63184v24a7.99977 7.99977 0 0 0 8 8h64a7.99977 7.99977 0 0 0 8-8v-8a7.99877 7.99877 0 0 0 -2.34326-5.65674l-20.43457-20.43506 34.687-98.28125 12.09083 108.81592v23.55713a7.99977 7.99977 0 0 0 8 8h64a7.99977 7.99977 0 0 0 8-8v-8a7.99927 7.99927 0 0 0 -3.2002-6.3999l-28.7998-21.6001v-128.50037l20.03076 11.44617a7.99956 7.99956 0 0 0 3.96924 1.0542h60.68652l29.65674 29.65674a7.99877 7.99877 0 0 0 5.65674 2.34326h64v40h-40a8.0001 8.0001 0 0 0 -6.85986 3.88428l-21.66944 36.11572h-51.4707a7.99977 7.99977 0 0 0 -8 8v32a7.99977 7.99977 0 0 0 8 8h224a7.99977 7.99977 0 0 0 8-8v-184a8.00038 8.00038 0 0 0 -1.75293-4.99756l-30.24707-37.80884v-181.1936a7.99977 7.99977 0 0 0 -8-8h-80v-48a7.99977 7.99977 0 0 0 -8-8h-136a7.99977 7.99977 0 0 0 -8 8v56c0 .02393.00342.04688.0036.0708.00085.10193.01062.20386.01544.30591.00891.19141.01966.38183.04181.56933.01154.09717.02918.19361.04437.29065.03064.19666.066.39148.11066.58313.00934.04.01288.08057.02289.12061l7.76123 31.04492v39.01465a7.99583 7.99583 0 0 0 .84473 3.57764l8 16a7.99924 7.99924 0 0 0 7.15527 4.42236h16v40h16v-40h16a7.99924 7.99924 0 0 0 7.15527-4.42236l8-16a7.99583 7.99583 0 0 0 .84473-3.57764v-39.01465l2.51617-10.0647 14.32856 28.657a7.99924 7.99924 0 0 0 7.15527 4.42235h48v88h-16a8.00072 8.00072 0 0 0 -6.85986 3.88379l-21.66974 36.11621h-11.4704a32.036 32.036 0 0 0 -32-32h-28.0874l-43.98926-56.55762a39.7416 39.7416 0 0 0 -31.57422-15.44238h-8.34912zm-24-24a8.00917 8.00917 0 0 1 8 8h-16a8.00917 8.00917 0 0 1 8-8zm10.34326 125.65674a7.99877 7.99877 0 0 0 5.65674 2.34326h32a16.01833 16.01833 0 0 1 16 16h-58.7451a23.84457 23.84457 0 0 1 -16.9707-7.0293l-4.97072-4.9707 16.68652-16.68652zm-37.65674 18.34326h-28.68652v-28.68652zm-24.00049 216h-44.68603v-9.44153l29.37079-5.87414zm101.98047 0h-42.6665v-9.75366l22.24652-5.56165zm-26.6665-30.24634-17.05975 4.26489-14.98908-134.90185a8.00009 8.00009 0 0 0 -15.49512-1.7793l-46.4859 131.71009-23.66955 4.73388 36.20471-173.78137h57.49469v16a7.99917 7.99917 0 0 0 4.03076 6.9458l19.96924 11.411zm139.31396-97.75366-16.00024-16h76.68628v16zm76.686-220.00024 48-36v160.00024h-48zm-51.47066 292.00024h78.9414l14.4 24h-107.74143zm131.4707 56h-208v-16h208zm0-32h-19.4707l-21.6694-36.11572a8.0001 8.0001 0 0 0 -6.8599-3.88428h-32v-136h52.15478l27.84522 34.80615zm-240-416h120v40h-120zm57.7539 72h-51.50781l-4-16h59.50781zm-1.7539 46.11133-4.94434 9.88867h-38.11133l-4.94433-9.88867v-30.11133h48zm44.94433-30.11133-16.00018-32h107.05615l-42.66662 32zm31.585 120h11.4707v24h-25.87051zm11.4707 40v40h-157.87552l-50.12451-28.64258v-11.35742zm-120-32h32a16.01833 16.01833 0 0 1 16 16h-60.32034l-21.26606-24.81055 14.41315-10.80981 12.85828 16.532a8 8 0 0 0 6.31494 3.08836zm-71.65088-72a23.84363 23.84363 0 0 1 18.94434 9.26562l23.709 30.48279-15.02332 11.26746-13.9049-16.22241a8.00031 8.00031 0 0 0 -14.07427 5.20654v16h-12.68652l-29.65674-29.65674-11.31348 11.31348 10.34326 10.34326-16.68652 16.68652-20.40235-20.40234a25.94129 25.94129 0 0 1 18.34325-44.28418h8.29315l3.64679 10.94043a19.09924 19.09924 0 0 0 36.23828 0l3.64678-10.94043zm-37.432-.54688a23.89506 23.89506 0 0 0 10.1659 0l-2.14258 6.42774a3.09958 3.09958 0 0 1 -5.88086 0zm5.08285-15.45312a8.00917 8.00917 0 0 1 -8-8v-8h16v8a8.00917 8.00917 0 0 1 -8 8z"/></svg>